<svg width="211" height="119" viewBox="0 0 211 119" fill="none" xmlns="http://www.w3.org/2000/svg">
<path d="M164.844 66.1111H46.1562C42.4637 66.1111 39.5625 63.2022 39.5625 59.5C39.5625 55.7978 42.4637 52.8889 46.1562 52.8889H164.844C168.536 52.8889 171.438 55.7978 171.438 59.5C171.438 63.2022 168.536 66.1111 164.844 66.1111Z" fill="white"/>
<path d="M120.031 112.389C119.166 112.399 118.309 112.228 117.514 111.887C116.719 111.545 116.004 111.041 115.416 110.406C112.778 107.761 112.778 103.662 115.416 101.018L156.956 59.3678L115.416 17.7178C112.778 15.0733 112.778 10.9745 115.416 8.33001C118.053 5.68557 122.141 5.68557 124.779 8.33001L170.935 54.6078C173.573 57.2522 173.573 61.3511 170.935 63.9956L124.779 110.273C123.46 111.596 121.746 112.257 120.163 112.257L120.031 112.389Z" fill="white"/>
</svg>
