<svg width="1486" height="231" viewBox="0 0 1486 231" fill="none" xmlns="http://www.w3.org/2000/svg">
<path d="M77.8764 230.22C61.7543 230.22 47.8693 226.776 36.2216 219.886C24.6449 212.926 15.696 203.161 9.375 190.589C3.125 177.947 0 163.139 0 146.165C0 129.403 3.125 114.631 9.375 101.847C15.696 89.0625 24.5028 79.0838 35.7955 71.9105C47.1591 64.7372 60.4403 61.1506 75.6392 61.1506C84.8722 61.1506 93.821 62.6776 102.486 65.7315C111.151 68.7855 118.928 73.5795 125.817 80.1136C132.706 86.6477 138.139 95.1349 142.116 105.575C146.094 115.945 148.082 128.551 148.082 143.395V154.688H18.0043V130.824H116.868C116.868 122.443 115.163 115.021 111.754 108.558C108.345 102.024 103.551 96.875 97.3722 93.1108C91.2642 89.3466 84.0909 87.4645 75.8523 87.4645C66.9034 87.4645 59.0909 89.6662 52.4148 94.0696C45.8097 98.402 40.696 104.084 37.0739 111.115C33.5227 118.075 31.7472 125.639 31.7472 133.807V152.45C31.7472 163.388 33.6648 172.692 37.5 180.362C41.4062 188.033 46.8395 193.892 53.7997 197.94C60.7599 201.918 68.892 203.906 78.196 203.906C84.233 203.906 89.7372 203.054 94.7088 201.349C99.6804 199.574 103.977 196.946 107.599 193.466C111.222 189.986 113.991 185.689 115.909 180.575L146.058 186.009C143.643 194.886 139.311 202.663 133.061 209.339C126.882 215.945 119.105 221.094 109.73 224.787C100.426 228.409 89.8082 230.22 77.8764 230.22Z" fill="#F7F7F7"/>
<path d="M200.279 8.73579V226.918H168.425V8.73579H200.279Z" fill="#F7F7F7"/>
<path d="M297.06 230.22C281.222 230.22 267.585 226.634 256.151 219.46C244.787 212.216 236.051 202.237 229.943 189.524C223.835 176.811 220.781 162.251 220.781 145.845C220.781 129.226 223.906 114.56 230.156 101.847C236.406 89.0625 245.213 79.0838 256.577 71.9105C267.94 64.7372 281.328 61.1506 296.74 61.1506C309.169 61.1506 320.249 63.4588 329.979 68.0753C339.709 72.6207 347.557 79.0128 353.523 87.2514C359.56 95.4901 363.146 105.114 364.283 116.122H333.281C331.577 108.452 327.67 101.847 321.562 96.3068C315.526 90.767 307.429 87.9972 297.273 87.9972C288.395 87.9972 280.618 90.3409 273.942 95.0284C267.337 99.6449 262.188 106.25 258.494 114.844C254.801 123.366 252.955 133.452 252.955 145.099C252.955 157.031 254.766 167.33 258.388 175.994C262.01 184.659 267.124 191.371 273.729 196.129C280.405 200.888 288.253 203.267 297.273 203.267C303.31 203.267 308.778 202.166 313.679 199.964C318.651 197.692 322.805 194.46 326.143 190.27C329.553 186.08 331.932 181.037 333.281 175.142H364.283C363.146 185.724 359.702 195.17 353.949 203.48C348.196 211.79 340.49 218.324 330.831 223.082C321.243 227.841 309.986 230.22 297.06 230.22Z" fill="#F7F7F7"/>
<path d="M404.334 228.942C398.51 228.942 393.503 226.882 389.313 222.763C385.123 218.572 383.027 213.53 383.027 207.635C383.027 201.811 385.123 196.839 389.313 192.72C393.503 188.53 398.51 186.435 404.334 186.435C410.158 186.435 415.165 188.53 419.355 192.72C423.546 196.839 425.641 201.811 425.641 207.635C425.641 211.541 424.647 215.128 422.658 218.395C420.74 221.591 418.184 224.148 414.988 226.065C411.792 227.983 408.24 228.942 404.334 228.942Z" fill="#F7F7F7"/>
<path d="M575.929 103.232L547.058 108.345C545.85 104.652 543.933 101.136 541.305 97.7983C538.748 94.4602 535.268 91.7259 530.865 89.5952C526.461 87.4645 520.957 86.3991 514.352 86.3991C505.332 86.3991 497.804 88.4233 491.767 92.4716C485.73 96.4489 482.711 101.598 482.711 107.919C482.711 113.388 484.735 117.791 488.784 121.129C492.832 124.467 499.366 127.202 508.386 129.332L534.38 135.298C549.437 138.778 560.659 144.141 568.045 151.385C575.431 158.629 579.125 168.04 579.125 179.616C579.125 189.418 576.284 198.153 570.602 205.824C564.991 213.423 557.143 219.389 547.058 223.722C537.044 228.054 525.431 230.22 512.221 230.22C493.897 230.22 478.947 226.314 467.37 218.501C455.794 210.618 448.691 199.432 446.064 184.943L476.852 180.256C478.77 188.281 482.711 194.354 488.677 198.473C494.643 202.521 502.42 204.545 512.008 204.545C522.449 204.545 530.794 202.379 537.044 198.047C543.294 193.643 546.419 188.281 546.419 181.96C546.419 176.847 544.501 172.55 540.666 169.07C536.902 165.589 531.113 162.962 523.301 161.186L495.602 155.114C480.332 151.634 469.039 146.094 461.724 138.494C454.48 130.895 450.858 121.271 450.858 109.624C450.858 99.9645 453.556 91.5128 458.954 84.2685C464.352 77.0242 471.809 71.3778 481.326 67.3295C490.843 63.2102 501.745 61.1506 514.032 61.1506C531.717 61.1506 545.637 64.9858 555.794 72.6562C565.95 80.2557 572.662 90.4474 575.929 103.232Z" fill="#F7F7F7"/>
<path d="M675.533 63.2812V88.8494H586.151V63.2812H675.533ZM610.121 24.0767H641.974V178.871C641.974 185.05 642.898 189.702 644.744 192.827C646.591 195.881 648.97 197.976 651.882 199.112C654.865 200.178 658.097 200.71 661.577 200.71C664.134 200.71 666.371 200.533 668.288 200.178C670.206 199.822 671.697 199.538 672.763 199.325L678.516 225.639C676.669 226.349 674.041 227.06 670.632 227.77C667.223 228.551 662.962 228.977 657.848 229.048C649.467 229.19 641.655 227.699 634.411 224.574C627.166 221.449 621.307 216.619 616.832 210.085C612.358 203.551 610.121 195.348 610.121 185.476V24.0767Z" fill="#F7F7F7"/>
<path d="M799.427 159.055V63.2812H831.387V226.918H800.066V198.58H798.361C794.597 207.315 788.56 214.595 780.25 220.419C772.012 226.172 761.749 229.048 749.462 229.048C738.951 229.048 729.647 226.74 721.55 222.124C713.524 217.436 707.203 210.511 702.587 201.349C698.042 192.188 695.769 180.859 695.769 167.365V63.2812H727.622V163.53C727.622 174.68 730.712 183.558 736.891 190.163C743.07 196.768 751.096 200.071 760.968 200.071C766.934 200.071 772.864 198.58 778.759 195.597C784.725 192.614 789.661 188.104 793.567 182.067C797.544 176.03 799.498 168.359 799.427 159.055Z" fill="#F7F7F7"/>
<path d="M920.444 230.114C907.234 230.114 895.444 226.74 885.075 219.993C874.776 213.175 866.68 203.48 860.785 190.909C854.961 178.267 852.049 163.104 852.049 145.419C852.049 127.734 854.996 112.607 860.891 100.036C866.857 87.4645 875.025 77.8409 885.394 71.1648C895.763 64.4886 907.518 61.1506 920.657 61.1506C930.813 61.1506 938.981 62.8551 945.16 66.2642C951.41 69.6023 956.239 73.5085 959.648 77.983C963.129 82.4574 965.827 86.3991 967.745 89.8082H969.663V8.73579H1001.52V226.918H970.408V201.456H967.745C965.827 204.936 963.058 208.913 959.435 213.388C955.884 217.862 950.984 221.768 944.734 225.107C938.484 228.445 930.387 230.114 920.444 230.114ZM927.475 202.947C936.637 202.947 944.379 200.533 950.7 195.703C957.092 190.803 961.921 184.02 965.188 175.355C968.526 166.69 970.195 156.605 970.195 145.099C970.195 133.736 968.562 123.793 965.295 115.27C962.028 106.747 957.234 100.107 950.913 95.348C944.592 90.5895 936.779 88.2102 927.475 88.2102C917.887 88.2102 909.897 90.696 903.505 95.6676C897.113 100.639 892.283 107.422 889.016 116.016C885.82 124.609 884.222 134.304 884.222 145.099C884.222 156.037 885.856 165.874 889.123 174.609C892.39 183.345 897.219 190.27 903.612 195.384C910.075 200.426 918.029 202.947 927.475 202.947Z" fill="#F7F7F7"/>
<path d="M1031.98 226.918V63.2812H1063.83V226.918H1031.98ZM1048.07 38.0327C1042.53 38.0327 1037.77 36.1861 1033.79 32.4929C1029.88 28.7287 1027.93 24.2543 1027.93 19.0696C1027.93 13.8139 1029.88 9.33949 1033.79 5.6463C1037.77 1.8821 1042.53 0 1048.07 0C1053.61 0 1058.33 1.8821 1062.24 5.6463C1066.21 9.33949 1068.2 13.8139 1068.2 19.0696C1068.2 24.2543 1066.21 28.7287 1062.24 32.4929C1058.33 36.1861 1053.61 38.0327 1048.07 38.0327Z" fill="#F7F7F7"/>
<path d="M1160.61 230.22C1145.27 230.22 1131.89 226.705 1120.45 219.673C1109.02 212.642 1100.14 202.805 1093.82 190.163C1087.5 177.521 1084.34 162.749 1084.34 145.845C1084.34 128.871 1087.5 114.027 1093.82 101.314C1100.14 88.6009 1109.02 78.7287 1120.45 71.6974C1131.89 64.6662 1145.27 61.1506 1160.61 61.1506C1175.96 61.1506 1189.34 64.6662 1200.78 71.6974C1212.21 78.7287 1221.09 88.6009 1227.41 101.314C1233.73 114.027 1236.89 128.871 1236.89 145.845C1236.89 162.749 1233.73 177.521 1227.41 190.163C1221.09 202.805 1212.21 212.642 1200.78 219.673C1189.34 226.705 1175.96 230.22 1160.61 230.22ZM1160.72 203.48C1170.66 203.48 1178.9 200.852 1185.44 195.597C1191.97 190.341 1196.8 183.345 1199.93 174.609C1203.12 165.874 1204.72 156.25 1204.72 145.739C1204.72 135.298 1203.12 125.71 1199.93 116.974C1196.8 108.168 1191.97 101.101 1185.44 95.7741C1178.9 90.4474 1170.66 87.7841 1160.72 87.7841C1150.71 87.7841 1142.4 90.4474 1135.79 95.7741C1129.26 101.101 1124.39 108.168 1121.2 116.974C1118.07 125.71 1116.51 135.298 1116.51 145.739C1116.51 156.25 1118.07 165.874 1121.2 174.609C1124.39 183.345 1129.26 190.341 1135.79 195.597C1142.4 200.852 1150.71 203.48 1160.72 203.48Z" fill="#F7F7F7"/>
<path d="M1311.04 117.827C1311.04 106.179 1313.88 95.5611 1319.56 85.973C1325.24 76.3849 1332.87 68.75 1342.46 63.0682C1352.05 57.3864 1362.67 54.5455 1374.32 54.5455C1384.4 54.5455 1393.71 56.7116 1402.23 61.044C1410.82 65.3764 1417.92 71.3068 1423.54 78.8352C1429.15 86.2926 1432.63 94.7443 1433.98 104.19H1408.19C1406.77 96.875 1402.83 90.9091 1396.37 86.2926C1389.91 81.6051 1382.56 79.2614 1374.32 79.2614C1367.21 79.2614 1360.75 81.0014 1354.93 84.4815C1349.1 87.9616 1344.45 92.6136 1340.97 98.4375C1337.49 104.261 1335.75 110.724 1335.75 117.827C1335.75 124.929 1337.49 131.392 1340.97 137.216C1344.45 143.04 1349.1 147.692 1354.93 151.172C1360.75 154.652 1367.21 156.392 1374.32 156.392C1382.56 156.392 1389.52 154.084 1395.2 149.467C1400.95 144.78 1404.57 138.778 1406.06 131.463H1431.84C1430.5 140.909 1427.19 149.396 1421.94 156.925C1416.68 164.382 1409.93 170.277 1401.7 174.609C1393.53 178.942 1384.4 181.108 1374.32 181.108C1362.67 181.108 1352.05 178.267 1342.46 172.585C1332.87 166.903 1325.24 159.268 1319.56 149.68C1313.88 140.092 1311.04 129.474 1311.04 117.827ZM1373.25 230.327C1357.77 230.327 1343.21 227.415 1329.57 221.591C1316.01 215.767 1304.04 207.706 1293.67 197.408C1283.37 187.038 1275.28 175.071 1269.38 161.506C1263.56 147.94 1260.68 133.381 1260.75 117.827C1260.82 102.273 1263.77 87.7131 1269.59 74.1477C1275.49 60.5824 1283.58 48.6506 1293.88 38.3523C1304.18 27.983 1316.11 19.8864 1329.68 14.0625C1343.24 8.23864 1357.77 5.32671 1373.25 5.32671C1388.81 5.32671 1403.36 8.23864 1416.93 14.0625C1430.57 19.8864 1442.5 27.983 1452.73 38.3523C1463.02 48.6506 1471.08 60.5824 1476.91 74.1477C1482.73 87.7131 1485.68 102.273 1485.75 117.827C1485.82 133.381 1482.95 147.94 1477.12 161.506C1471.3 175.071 1463.24 187.038 1452.94 197.408C1442.64 207.706 1430.67 215.767 1417.04 221.591C1403.4 227.415 1388.81 230.327 1373.25 230.327ZM1373.25 205.611C1385.4 205.611 1396.8 203.338 1407.45 198.793C1418.1 194.247 1427.44 187.962 1435.47 179.936C1443.49 171.911 1449.78 162.607 1454.32 152.024C1458.87 141.371 1461.11 130.007 1461.04 117.933C1460.96 105.788 1458.66 94.3892 1454.11 83.7358C1449.57 73.0824 1443.28 63.7429 1435.25 55.7173C1427.23 47.6918 1417.92 41.4062 1407.34 36.8608C1396.76 32.3153 1385.4 30.0426 1373.25 30.0426C1361.18 30.0426 1349.85 32.3153 1339.27 36.8608C1328.68 41.4062 1319.38 47.7273 1311.35 55.8239C1303.33 63.8494 1297.01 73.1889 1292.39 83.8423C1287.85 94.4247 1285.54 105.788 1285.47 117.933C1285.4 129.936 1287.63 141.264 1292.18 151.918C1296.72 162.5 1303.01 171.804 1311.04 179.83C1319.13 187.855 1328.47 194.176 1339.05 198.793C1349.71 203.338 1361.11 205.611 1373.25 205.611Z" fill="#AC9FA3"/>
</svg>
